<svg width="208" height="80" viewBox="0 0 208 80" fill="none" xmlns="http://www.w3.org/2000/svg">
<path d="M72.6622 53V27.8H80.9062C82.5382 27.8 83.9542 28.112 85.1542 28.736C86.3542 29.336 87.2782 30.2 87.9262 31.328C88.5982 32.432 88.9342 33.74 88.9342 35.252C88.9342 36.74 88.5982 38.048 87.9262 39.176C87.2782 40.304 86.3542 41.18 85.1542 41.804C83.9542 42.404 82.5382 42.704 80.9062 42.704H75.4342V53H72.6622ZM75.4342 40.292H80.5822C82.3342 40.292 83.7022 39.848 84.6862 38.96C85.6702 38.048 86.1622 36.812 86.1622 35.252C86.1622 33.692 85.6702 32.468 84.6862 31.58C83.7022 30.668 82.3342 30.212 80.5822 30.212H75.4342V40.292ZM101.628 53.36C100.02 53.36 98.5681 52.964 97.2721 52.172C96.0001 51.356 94.9801 50.264 94.2121 48.896C93.4681 47.528 93.0961 45.98 93.0961 44.252C93.0961 42.524 93.4681 40.976 94.2121 39.608C94.9801 38.216 96.0001 37.124 97.2721 36.332C98.5681 35.54 100.02 35.144 101.628 35.144C103.236 35.144 104.676 35.54 105.948 36.332C107.244 37.124 108.264 38.216 109.008 39.608C109.776 40.976 110.16 42.524 110.16 44.252C110.16 45.98 109.776 47.528 109.008 48.896C108.264 50.264 107.244 51.356 105.948 52.172C104.676 52.964 103.236 53.36 101.628 53.36ZM101.628 51.02C102.78 51.02 103.8 50.732 104.688 50.156C105.576 49.556 106.272 48.752 106.776 47.744C107.304 46.712 107.568 45.548 107.568 44.252C107.568 42.932 107.304 41.768 106.776 40.76C106.272 39.752 105.576 38.96 104.688 38.384C103.8 37.784 102.78 37.484 101.628 37.484C100.476 37.484 99.4561 37.784 98.5681 38.384C97.6801 38.96 96.9721 39.752 96.4441 40.76C95.9401 41.768 95.6881 42.932 95.6881 44.252C95.6881 45.548 95.9401 46.712 96.4441 47.744C96.9721 48.752 97.6801 49.556 98.5681 50.156C99.4561 50.732 100.476 51.02 101.628 51.02ZM123.034 53.36C121.474 53.36 120.022 53.156 118.678 52.748C117.334 52.316 116.206 51.656 115.294 50.768L116.698 48.932C117.826 49.748 118.894 50.324 119.902 50.66C120.91 50.972 121.93 51.128 122.962 51.128C124.426 51.128 125.626 50.84 126.562 50.264C127.522 49.688 128.002 48.956 128.002 48.068C128.002 47.372 127.774 46.844 127.318 46.484C126.886 46.1 126.31 45.824 125.59 45.656C124.87 45.488 124.066 45.356 123.178 45.26C122.314 45.164 121.438 45.044 120.55 44.9C119.686 44.732 118.894 44.492 118.174 44.18C117.454 43.868 116.866 43.412 116.41 42.812C115.978 42.188 115.762 41.36 115.762 40.328C115.762 39.296 116.05 38.396 116.626 37.628C117.226 36.86 118.054 36.26 119.11 35.828C120.166 35.372 121.366 35.144 122.71 35.144C124.03 35.144 125.278 35.312 126.454 35.648C127.654 35.96 128.842 36.524 130.018 37.34L128.722 39.248C127.738 38.552 126.73 38.072 125.698 37.808C124.69 37.52 123.658 37.376 122.602 37.376C121.282 37.376 120.214 37.628 119.398 38.132C118.582 38.636 118.174 39.308 118.174 40.148C118.174 40.82 118.39 41.336 118.822 41.696C119.278 42.056 119.866 42.32 120.586 42.488C121.33 42.656 122.134 42.8 122.998 42.92C123.886 43.016 124.762 43.148 125.626 43.316C126.514 43.46 127.318 43.7 128.038 44.036C128.782 44.348 129.37 44.816 129.802 45.44C130.258 46.04 130.486 46.868 130.486 47.924C130.486 48.932 130.162 49.856 129.514 50.696C128.866 51.512 127.978 52.16 126.85 52.64C125.722 53.12 124.45 53.36 123.034 53.36ZM147.68 53.36C145.712 53.36 144.2 52.94 143.144 52.1C142.112 51.236 141.596 49.988 141.596 48.356V37.592H135.584V35.432H141.596V30.608L144.224 29.996V35.432H152.324V37.592H144.224V47.924C144.224 49.028 144.524 49.82 145.124 50.3C145.724 50.78 146.588 51.02 147.716 51.02C148.412 51.02 149.132 50.948 149.876 50.804C150.62 50.66 151.436 50.42 152.324 50.084V52.46C151.532 52.748 150.752 52.964 149.984 53.108C149.216 53.276 148.448 53.36 147.68 53.36Z" fill="white"/>
<path d="M158.466 53V50.588H165.018V30.212H158.466V27.8H174.306V30.212H167.79V50.588H174.306V53H158.466ZM190.852 53.36C188.884 53.36 187.372 52.94 186.316 52.1C185.284 51.236 184.768 49.988 184.768 48.356V37.592H178.756V35.432H184.768V30.608L187.396 29.996V35.432H195.496V37.592H187.396V47.924C187.396 49.028 187.696 49.82 188.296 50.3C188.896 50.78 189.76 51.02 190.888 51.02C191.584 51.02 192.304 50.948 193.048 50.804C193.792 50.66 194.608 50.42 195.496 50.084V52.46C194.704 52.748 193.924 52.964 193.156 53.108C192.388 53.276 191.62 53.36 190.852 53.36Z" fill="#EF4444"/>
<path d="M30 34.2308C32.4792 34.2308 34.599 35.2464 36.3594 37.2776C38.1198 39.3089 39 41.7548 39 44.6154C39 47.476 38.1198 49.9219 36.3594 51.9531C34.599 53.9844 32.4792 55 30 55C27.5208 55 25.401 53.9844 23.6406 51.9531C21.8802 49.9219 21 47.476 21 44.6154C21 41.7548 21.8802 39.3089 23.6406 37.2776C25.401 35.2464 27.5208 34.2308 30 34.2308ZM52 19.2308C54.2083 19.2308 56.0938 20.1322 57.6562 21.9351C59.2188 23.738 60 25.9135 60 28.4615V60.7692C60 63.3173 59.2188 65.4928 57.6562 67.2957C56.0938 69.0986 54.2083 70 52 70H8C5.79167 70 3.90625 69.0986 2.34375 67.2957C0.78125 65.4928 0 63.3173 0 60.7692V28.4615C0 25.9135 0.78125 23.738 2.34375 21.9351C3.90625 20.1322 5.79167 19.2308 8 19.2308H15L16.5938 14.3269C16.9896 13.149 17.7135 12.1334 18.7656 11.28C19.8177 10.4267 20.8958 10 22 10H38C39.1042 10 40.1823 10.4267 41.2344 11.28C42.2865 12.1334 43.0104 13.149 43.4062 14.3269L45 19.2308H52ZM30 60.7692C33.8542 60.7692 37.151 59.1887 39.8906 56.0276C42.6302 52.8666 44 49.0625 44 44.6154C44 40.1683 42.6302 36.3642 39.8906 33.2031C37.151 30.0421 33.8542 28.4615 30 28.4615C26.1458 28.4615 22.849 30.0421 20.1094 33.2031C17.3698 36.3642 16 40.1683 16 44.6154C16 49.0625 17.3698 52.8666 20.1094 56.0276C22.849 59.1887 26.1458 60.7692 30 60.7692Z" fill="#EF4444"/>
</svg>
