<svg width="529" height="503" viewBox="0 0 529 503" fill="none" xmlns="http://www.w3.org/2000/svg">
<path d="M264.5 203.135C286.358 203.135 305.047 211.649 320.568 228.678C336.089 245.706 343.85 266.211 343.85 290.192C343.85 314.173 336.089 334.678 320.568 351.707C305.047 368.736 286.358 377.25 264.5 377.25C242.642 377.25 223.953 368.736 208.432 351.707C192.911 334.678 185.15 314.173 185.15 290.192C185.15 266.211 192.911 245.706 208.432 228.678C223.953 211.649 242.642 203.135 264.5 203.135ZM458.467 77.3846C477.937 77.3846 494.56 84.9417 508.336 100.056C522.112 115.17 529 133.408 529 154.769V425.615C529 446.977 522.112 465.215 508.336 480.329C494.56 495.443 477.937 503 458.467 503H70.5333C51.0632 503 34.4401 495.443 20.6641 480.329C6.88802 465.215 0 446.977 0 425.615V154.769C0 133.408 6.88802 115.17 20.6641 100.056C34.4401 84.9417 51.0632 77.3846 70.5333 77.3846H132.25L146.302 36.274C149.791 26.3994 156.174 17.8851 165.45 10.7311C174.726 3.57702 184.232 0 193.967 0H335.033C344.768 0 354.274 3.57702 363.55 10.7311C372.826 17.8851 379.209 26.3994 382.698 36.274L396.75 77.3846H458.467ZM264.5 425.615C298.481 425.615 327.548 412.365 351.702 385.865C375.856 359.365 387.933 327.474 387.933 290.192C387.933 252.911 375.856 221.02 351.702 194.52C327.548 168.019 298.481 154.769 264.5 154.769C230.519 154.769 201.452 168.019 177.298 194.52C153.144 221.02 141.067 252.911 141.067 290.192C141.067 327.474 153.144 359.365 177.298 385.865C201.452 412.365 230.519 425.615 264.5 425.615Z" fill="#EF4444"/>
</svg>
